<svg width="28" height="20" viewBox="0 0 28 20" fill="none" xmlns="http://www.w3.org/2000/svg">
<path d="M0.666664 16.6667H27.3333V19.3333H0.666664V16.6667ZM16.4533 4.38667C16.5867 4.06667 16.6667 3.70667 16.6667 3.33334C16.6667 1.86667 15.4667 0.666672 14 0.666672C12.5333 0.666672 11.3333 1.86667 11.3333 3.33334C11.3333 3.70667 11.4133 4.06667 11.5467 4.38667C6.33333 5.46667 2.36 9.90667 2 15.3333H26C25.64 9.90667 21.6667 5.46667 16.4533 4.38667ZM14 6.77334C17.9333 6.77334 21.2933 9.21334 22.6667 12.6533H5.33333C6.70666 9.21334 10.0667 6.77334 14 6.77334Z" fill="#323232"/>
</svg>
