<svg id="Layer_1" height="40" viewBox="0 0 512 512" width="40" xmlns="http://www.w3.org/2000/svg" data-name="Layer 1"><path d="m174.076 270.608a3 3 0 0 0 3-3 5.44 5.44 0 0 1 10.88 0 3 3 0 0 0 6 0 11.44 11.44 0 0 0 -22.88 0 3 3 0 0 0 3 3z"/><path d="m132.064 267.608a5.44 5.44 0 1 1 10.879 0 3 3 0 0 0 6 0 11.44 11.44 0 1 0 -22.879 0 3 3 0 0 0 6 0z"/><path d="m143.818 297.1a3 3 0 0 0 0 4.242 22.9 22.9 0 0 0 32.383 0 3 3 0 0 0 -4.243-4.242 16.9 16.9 0 0 1 -23.9 0 3 3 0 0 0 -4.24 0z"/><path d="m157.717 199.391a3 3 0 0 0 0 6h.961a54.573 54.573 0 0 1 38.843 16.089 3 3 0 1 0 4.243-4.242 60.533 60.533 0 0 0 -43.086-17.847z"/><path d="m374.168 270.612a3 3 0 0 0 3-3 5.44 5.44 0 1 1 10.879 0 3 3 0 1 0 6 0 11.44 11.44 0 1 0 -22.879 0 3 3 0 0 0 3 3z"/><path d="m346.035 270.612a3 3 0 0 0 3-3 11.44 11.44 0 1 0 -22.88 0 3 3 0 1 0 6 0 5.44 5.44 0 0 1 10.88 0 3 3 0 0 0 3 3z"/><path d="m376.293 301.35a3 3 0 1 0 -4.243-4.242 16.9 16.9 0 0 1 -23.9 0 3 3 0 0 0 -4.243 4.242 22.9 22.9 0 0 0 32.383 0z"/><path d="m316.1 402.55c-7.391-3.384-11.947-7.83-13.541-13.214-2.336-7.892 2.405-15.526 2.479-15.644a3 3 0 0 0 -5.049-3.242c-.258.4-6.295 9.951-3.2 20.523 2.091 7.15 7.749 12.881 16.816 17.032a3 3 0 0 0 2.5-5.455z"/><path d="m6.385 168.885a33.854 33.854 0 0 0 29.926 22.12 233 233 0 1 0 439.379 0 33.856 33.856 0 0 0 29.925-22.119c.351-.956.663-1.941.928-2.929a33.837 33.837 0 0 0 -21.02-40.491c-.675-.248-1.394-.486-2.149-.712a33.792 33.792 0 0 0 -35.884 11.291 234.491 234.491 0 0 0 -26-31.245 32.973 32.973 0 0 0 15.227-32.354c-.105-.749-.228-1.475-.366-2.159a32.951 32.951 0 0 0 -35.876-26.2c-.992.11-1.986.265-2.955.461a32.989 32.989 0 0 0 -24.913 22.485 233.351 233.351 0 0 0 -21.944-11.194c.263-17.021-9.142-30.172-24.2-33.66-8.037-1.864-17.012-.831-26.707 3.071-6.951-7.5-14.7-12.392-22.515-14.207a30.111 30.111 0 0 0 -20.134 2.133 30.12 30.12 0 0 0 -20.137-2.136c-7.814 1.814-15.561 6.71-22.513 14.206-9.694-3.9-18.669-4.933-26.706-3.071-14.776 3.422-24.108 16.147-24.207 32.693a233.2 233.2 0 0 0 -24.151 12.16 32.985 32.985 0 0 0 -24.911-22.483c-.97-.2-1.964-.352-2.957-.462a32.949 32.949 0 0 0 -35.875 26.2q-.207 1.026-.368 2.174a32.973 32.973 0 0 0 15.229 32.343 234.566 234.566 0 0 0 -26 31.244 33.792 33.792 0 0 0 -35.9-11.286c-.74.222-1.459.46-2.135.708a33.838 33.838 0 0 0 -21.019 40.492c.265.987.577 1.972.928 2.927zm28.4 15.96a27.807 27.807 0 0 1 -21.345-14.816 36.148 36.148 0 0 0 8.278.994 29.482 29.482 0 0 0 10.382-1.823 28.286 28.286 0 0 0 10.413-6.9c-.834 6.956-3.413 14.5-7.73 22.545zm-7.5-34.948c2.04-4.379 8.208-6.562 13.194-4.882a31.392 31.392 0 0 1 1.98 7.488 25.653 25.653 0 0 1 -10.914 10.406c-4.285-2.727-6.314-8.594-4.257-13.009zm75.22 286.124q-3.565-3.279-7.021-6.715-8.038-8.037-15.165-16.718h.921v-17.81a25.609 25.609 0 0 1 13.77-22.678c7.397 19.224 10.121 42.554 7.498 63.921zm36.508 27.4a227.394 227.394 0 0 1 -31.125-22.589c3.633-23.383.929-49.53-7.275-70.88a25.525 25.525 0 0 1 6.215-.767h11.127a130.1 130.1 0 0 0 22.1 88.121zm-15.013-94.231h1.168a33.87 33.87 0 0 0 1.3 9.45 33.425 33.425 0 0 0 6.572 12.405l4.878 5.824a7.1 7.1 0 0 0 5.487 2.569c.151 0 .3 0 .454-.014a7.137 7.137 0 0 0 3.727-1.32l2.275 1.952-8.31 48.544a124.081 124.081 0 0 1 -17.551-79.41zm-22.54-106.172v-49.832a22.984 22.984 0 0 1 13.234-20.762l14.48-6.744a3 3 0 0 1 3.774 1.091 3 3 0 0 0 3.9 1.04l23.4-12.119a15.536 15.536 0 0 1 16.28 1.182l29.223 20.987a27.652 27.652 0 0 1 11.5 22.407v38.074a16.537 16.537 0 0 0 -16.212-13.408 4.985 4.985 0 0 1 -4.98-4.98v-5.449c2.929.26 5.884.4 8.86.4h1.981a3 3 0 0 0 0-6h-1.98a91.86 91.86 0 0 1 -64.543-26.245 11.225 11.225 0 0 1 11.146-10.019h16.4a3 3 0 0 0 0-6h-16.4a17.229 17.229 0 0 0 -17.209 17.21 3 3 0 0 0 .88 2.123l.085.084q.984.985 2 1.937a45.922 45.922 0 0 0 -7.793 1.957l-2.062.716a28.786 28.786 0 0 0 -19.333 27.175v25.008a11.044 11.044 0 0 0 -6.631.167zm6.626 6.4v11.582a6.613 6.613 0 0 1 -5.836-11.718 5.068 5.068 0 0 1 5.836.131zm109.581-.131a6.615 6.615 0 0 1 -5.733 11.756v-11.698a5.061 5.061 0 0 1 5.733-.063zm-103.581-31.446a22.785 22.785 0 0 1 15.3-21.508l2.062-.715a39.9 39.9 0 0 1 12.072-2.19 97.465 97.465 0 0 0 46.539 20.365v6.161a10.992 10.992 0 0 0 10.98 10.98 10.445 10.445 0 0 1 4.894 1.216v36.089a45.924 45.924 0 1 1 -91.848 0zm54.582 155.381-2.023 1.666a12.884 12.884 0 0 0 -13.5.078l-1.879-1.613 8.743-13.5zm-17.581-27.1a21.521 21.521 0 0 1 -11.063-18.8v-11.164a51.87 51.87 0 0 0 39.972 0v11.162a21.521 21.521 0 0 1 -11.063 18.8l-8.923 4.956zm13.268 9.406 7.492-4.161a27.533 27.533 0 0 0 13.013-16.227 27.666 27.666 0 0 1 -2.483 32.051l-4.878 5.824a1.177 1.177 0 0 1 -1.89-.116zm-16.182-4.161 7.492 4.161-11.254 17.372a1.178 1.178 0 0 1 -1.891.116l-4.877-5.824a27.666 27.666 0 0 1 -2.483-32.051 27.533 27.533 0 0 0 13.013 16.227zm-3.623 95.294 11.35-66.306a6.8 6.8 0 0 1 8.086-.023l13.366 81.512a224.18 224.18 0 0 1 -32.802-15.182zm25.45-66.761 2.3-1.89a7.127 7.127 0 0 0 3.866 1.413c.152.009.3.014.454.014a7.1 7.1 0 0 0 5.487-2.569l4.878-5.824a33.439 33.439 0 0 0 6.572-12.405 33.869 33.869 0 0 0 1.3-9.45h.84a124.087 124.087 0 0 1 -17.683 79.611zm45.871 92.367a225.212 225.212 0 0 1 -32.062-8.149l-4.354-26.551a130.1 130.1 0 0 0 22.281-88.378h11.457a25.549 25.549 0 0 1 5.892.692 134.987 134.987 0 0 0 -3.214 86.978zm22.91 2.882q-8.523-.635-16.91-1.895v-36.844a2.983 2.983 0 0 0 -.134-.886 128.868 128.868 0 0 1 2.983-83.58 25.613 25.613 0 0 1 14.061 22.834zm36.557-100.368v100.189c-6.395.536-12.842.823-19.334.823q-5.634 0-11.223-.272v-35.565l52.489-157.585a32.764 32.764 0 0 0 4.719 23 33.1 33.1 0 0 0 4.159 5.243l-1.53 3c-.773.06-1.546.133-2.318.237a3 3 0 0 0 -2.53 2.338l-2.9 13.367a3 3 0 0 0 .728 2.671 2.944 2.944 0 0 0 .382.325c-6.694 5.906-16.552 16.354-19.643 28.761a31.323 31.323 0 0 0 -3.003 13.469zm91.631-197.491a3 3 0 0 0 -4.2.6 127.5 127.5 0 0 1 -61.207 44.275 65.569 65.569 0 0 1 4.757-21.412 9.024 9.024 0 0 0 4.977 1.468 10.62 10.62 0 0 0 4.663-1.118l.018-.01c4.764-2.374 8.546-8.33 7.749-16.833a21.11 21.11 0 0 0 7.754 1.582 14.48 14.48 0 0 0 11-4.594c3.242-3.655 3.562-8.524.8-12.116a10.854 10.854 0 0 0 -3.549-2.922 64.443 64.443 0 0 1 26.361-5.556 53.4 53.4 0 0 1 53.335 53.336v29.4a10.771 10.771 0 0 0 -1.271-.467c-15.386-7.84-24.522-20.736-27.146-38.342a71.839 71.839 0 0 1 .748-24.858 3 3 0 0 0 -5.484-2.27 127.941 127.941 0 0 1 -82.032 58.884l-1.874.41-.345-2.686c-.239-1.86-.391-3.72-.473-5.576a133.479 133.479 0 0 0 66.022-46.991 3 3 0 0 0 -.603-4.204zm-64.839 9.11c-1.442-1.873-.11-3.754.534-4.479a8.465 8.465 0 0 1 6.481-2.576 16.883 16.883 0 0 1 8.087 2.347c1.815 7.419-.605 12.37-3.922 14.03-1.789.872-3.454.617-4.455-.683a6.742 6.742 0 0 1 -1.1-3.827 3 3 0 0 0 -2.177-2.79 6.537 6.537 0 0 1 -3.448-2.022zm25.211-22.927c1.789-.871 3.454-.618 4.455.683a6.737 6.737 0 0 1 1.1 3.827 3 3 0 0 0 2.177 2.79 6.522 6.522 0 0 1 3.448 2.022c1.443 1.873.11 3.754-.533 4.48-2.5 2.825-7.95 3.917-14.568.233-1.82-7.425.603-12.378 3.921-14.039zm-2.311 175.2a3 3 0 0 0 2.932-2.365l2.9-13.366a2.993 2.993 0 0 0 -.833-2.768h4.614v12.944a10.094 10.094 0 0 1 -10.083 10.083h-.484c-.082-1.581-.128-3.164-.151-4.747a3 3 0 0 0 1.105.212zm-2.074-7.593q-.37-.183-.744-.358a40.764 40.764 0 0 0 -17.316-3.861q-.649 0-1.3.02l1.579-7.289a34.94 34.94 0 0 1 19.363 4.2zm5.974-16.906c-.322 0-.643-.006-.965-.017a25.567 25.567 0 0 1 -20.92-12.006 26.737 26.737 0 0 1 -2.12-24.809l2.853-6.751a52.454 52.454 0 0 0 26.863 42.959v.624zm-24.586-71.715 1.176-.257c.76-.166 1.517-.345 2.274-.525v1.085a11.154 11.154 0 0 0 -3.45-.31zm9.356 25.324.1-27.68a134.175 134.175 0 0 0 70.523-48.95 77.209 77.209 0 0 0 .718 14.1c2.274 15.579 9.471 28.2 20.984 37.079v25.914a45.976 45.976 0 0 1 -45.925 45.921 46.452 46.452 0 0 1 -46.4-46.391zm98.325.467v-1.068a12.4 12.4 0 0 0 1.952.17 12.778 12.778 0 0 0 4.753-.924c.237-.095.465-.2.693-.314v2.8a32.425 32.425 0 0 1 -15.923 27.786 51.6 51.6 0 0 0 8.525-28.457zm4.474-7.392a6.649 6.649 0 0 1 -4.474.191v-11.699a5.058 5.058 0 0 1 5.727-.049 6.6 6.6 0 0 1 -1.253 11.55zm-114.158-11.572a5.035 5.035 0 0 1 5.426-.117l-.043 11.961a6.6 6.6 0 0 1 -8.171-7.318 6.592 6.592 0 0 1 2.788-4.526zm.482 17.609-1.882 4.455 1.516-4.553c.122.037.243.065.366.103zm2.905 203.463a227.08 227.08 0 0 1 -24.394 4.029v-90.877c4.226 7.423 11.808 14.179 22.72 20.179a2.709 2.709 0 0 0 .26.126c.01 0 .206.092.527.243l-.389.885a39.979 39.979 0 0 0 -3.184 18.439 19.591 19.591 0 0 0 4.46 11.157zm-22.328-100.235c-.929-17.779 19.226-33.892 23.623-37.188a34.736 34.736 0 0 1 10.9 2.468c-.04 4.114.1 8.255.452 12.343a2.975 2.975 0 0 0 .075.458 24.041 24.041 0 0 0 9.7 14.087l6.375 4.4a27.4 27.4 0 0 1 10.121 32.13l-1.816 4.879-11.29 19.592c-1.555-5.679-5.2-11.093-10.846-16.009a59.739 59.739 0 0 0 -13.861-8.918c-15.005-8.273-22.887-17.774-23.433-28.242zm34.944 75.477-3.5 22.518c-1.038.277-2.076.559-3.119.821v-29.509a19.479 19.479 0 0 0 3.54 1.465 4.318 4.318 0 0 1 3.079 4.705zm98.169-36.293a225.828 225.828 0 0 1 -95.313 57.024l3.085-19.867a10.3 10.3 0 0 0 -7.3-11.318 13.706 13.706 0 0 1 -9.729-12.162 33.946 33.946 0 0 1 2.7-15.642l.17-.385a51.4 51.4 0 0 1 6.733 4.944c7.513 6.589 10.615 13.726 9.219 21.212a3 3 0 0 0 5.548 2.049l16.528-28.681a3.048 3.048 0 0 0 .212-.452l1.9-5.114a33.394 33.394 0 0 0 -5.866-33.315c15.934 10.253 40.982 20.675 77.038 20.675q6.782 0 14.1-.526a230.478 230.478 0 0 1 -19.025 21.557zm22.355-27.835c-65.844 5.938-98.792-22.547-108.726-33.3a16.1 16.1 0 0 0 10.5-15.063v-16.709a51.971 51.971 0 0 0 38.921-.036v16.743a16.1 16.1 0 0 0 16.083 16.083h17.634a25.616 25.616 0 0 1 25.588 25.588zm6-6.63v-.059a31.623 31.623 0 0 0 -31.588-31.588h-17.635a10.094 10.094 0 0 1 -10.083-10.083v-19.642a52.134 52.134 0 0 0 9.845-7.2 38.46 38.46 0 0 0 29.737-32.828l22.868 96.584q-1.539 2.425-3.144 4.815zm40.742-212.395a27.732 27.732 0 0 1 -8.393 2.4c-4.312-8.044-6.895-15.588-7.73-22.545a28.3 28.3 0 0 0 10.413 6.9 29.506 29.506 0 0 0 10.384 1.823 36.148 36.148 0 0 0 8.278-.994 27.623 27.623 0 0 1 -12.952 12.416zm-2.693-51.527c.179.062.362.113.538.178a27.78 27.78 0 0 1 17.6 31.916 29.963 29.963 0 0 1 -14.565 1.724 15.83 15.83 0 0 0 -11.18-26.5 31.414 31.414 0 0 1 7.607-7.318zm.8 18.976a9.86 9.86 0 0 1 -3.968 12.665 26.031 26.031 0 0 1 -10.211-10.061 31.358 31.358 0 0 1 2.1-7.771 9.857 9.857 0 0 1 12.074 5.171zm-21.6-17.907a27.81 27.81 0 0 1 11.746-2.6c.434 0 .869.026 1.3.046a36.962 36.962 0 0 0 -11.733 23.375c-1.071 9.684 1.3 20.44 7.032 32.029a27.829 27.829 0 0 1 -8.348-52.85zm9 77.192-1.519 5.9-5.905-1.521a13.615 13.615 0 0 1 -9.774-16.553c.053-.2.112-.4.183-.6a6.07 6.07 0 0 1 5.7-3.991 6.146 6.146 0 0 1 1.533.2c.48.126.914.26 1.325.411a13.549 13.549 0 0 1 8.452 16.154zm-26.997-29.348c-.127.484-.262.918-.412 1.327a13.553 13.553 0 0 1 -16.152 8.457l-5.9-1.519 1.521-5.906a13.616 13.616 0 0 1 16.552-9.774c.205.054.406.113.6.183a6.073 6.073 0 0 1 3.791 7.232zm-6.82-47.633a19.556 19.556 0 0 0 -3.9-2.3l-7.066-3.1-1.9-7.124a19.012 19.012 0 0 0 -3.09-6.392 228.947 228.947 0 0 1 15.956 18.916zm.691 21.1a6.1 6.1 0 0 1 -7.68 3.281c-.113-.042-.229-.089-.349-.142a13.621 13.621 0 0 1 -7.314-17.136c.1-.267.207-.531.311-.775l2.446-5.584 5.583 2.447a13.62 13.62 0 0 1 7.004 17.909zm-35.413-103.372q.737-.04 1.474-.04a26.95 26.95 0 0 1 26.417 21.591c.034.169.055.337.086.507a29.813 29.813 0 0 1 -7.888 6.07 17.351 17.351 0 0 0 -.14-5.111 15.758 15.758 0 0 0 -6.556-10.376 15.136 15.136 0 0 0 -12.023-1.978 17.088 17.088 0 0 0 -5.13 2.165 29.651 29.651 0 0 1 3.76-12.828zm13.145 30.786a30.28 30.28 0 0 1 -7.734.875 24.9 24.9 0 0 1 -8.3-11.81 10.877 10.877 0 0 1 5.638-3.349 9.226 9.226 0 0 1 7.316 1.132 9.74 9.74 0 0 1 3.978 6.438 10.783 10.783 0 0 1 -.898 6.714zm-34.078-18.825a26.742 26.742 0 0 1 13.606-10.516 31.359 31.359 0 0 0 -1.884 17.916 27.51 27.51 0 0 0 4.955 10.844c-6.456-1.838-13.211-5.39-20.187-10.621a26.849 26.849 0 0 1 3.51-7.623zm25.11 25.691q.84.036 1.674.037a35.94 35.94 0 0 0 22.389-7.747 26.933 26.933 0 0 1 -53.688-3.675c10.25 7.162 20.198 10.99 29.625 11.385zm11.878 33.643 1.5 5.637-5.614 1.5c-.271.07-.538.134-.807.188a13.141 13.141 0 0 1 -15.278-9.488c-.031-.114-.059-.231-.082-.347a5.838 5.838 0 0 1 4.216-6.784 13.119 13.119 0 0 1 16.06 9.3zm-3.5-13.361c.229-.081.453-.17.68-.256.729.723 1.458 1.446 2.178 2.179a19.312 19.312 0 0 0 -2.859-1.923zm-42.5 13.871-5.81.583-.582-5.8a13.073 13.073 0 0 1 10.427-14.17c.412-.084.845-.149 1.312-.2.2-.02.4-.03.6-.03a5.811 5.811 0 0 1 5.707 4.668c.038.192.066.39.085.584a13.138 13.138 0 0 1 -11.744 14.365zm-1.313-48.5c-.051.463-.088.926-.119 1.39a18.967 18.967 0 0 0 -2.069-2.669q1.095.631 2.183 1.277zm-21.178-11.058q4.134 1.887 8.2 3.953a19.379 19.379 0 0 0 -5.2-.182l-3.82.432c.341-1.394.61-2.796.82-4.203zm-1.483 10.317 5.124-.58a13.073 13.073 0 0 1 14.169 10.426c.084.413.149.847.2 1.313a5.814 5.814 0 0 1 -4.638 6.305c-.193.039-.391.066-.583.086a13.14 13.14 0 0 1 -14.35-11.578zm-90.11-53.322a24.165 24.165 0 0 1 17.336-2.286c7.125 1.655 14.317 6.47 20.8 13.923a3 3 0 0 0 3.469.779c9.256-4.06 17.651-5.259 24.952-3.565 12.639 2.926 20.124 13.918 19.537 28.694-.333 9.009-3.693 18.031-9.72 26.094-11.162 14.943-30.605 25.186-54.756 28.85a3.67 3.67 0 0 1 -.374.011 3.1 3.1 0 0 1 -.305-.158 109.624 109.624 0 0 1 -20.107-17.972c-12.839-14.94-23.181-38.49-13.712-59.748 2.996-6.592 7.449-11.645 12.88-14.622zm-69.443 8.85c7.3-1.694 15.7-.494 24.952 3.566a3 3 0 0 0 3.468-.779c6.483-7.453 13.676-12.268 20.8-13.922a24.561 24.561 0 0 1 12.506.294 38.72 38.72 0 0 0 -10.632 14.151c-4.156 9.33-5.224 20.127-3.089 31.223 2.173 11.288 7.7 22.606 16.037 32.877a111.87 111.87 0 0 1 -18.421 16.082c-.13.076-.239.13-.288.154a3.417 3.417 0 0 1 -.392-.007c-24.154-3.659-43.596-13.907-54.758-28.851-6.027-8.062-9.388-17.085-9.72-26.1-.588-14.769 6.898-25.761 19.537-28.688zm-25.167 33.218a48.33 48.33 0 0 0 .989 5.317l-6.113-.613a19.284 19.284 0 0 0 -5.15.179q5.082-2.571 10.274-4.883zm-20.09 22.426c.05-.479.115-.913.2-1.326a13.065 13.065 0 0 1 12.831-10.493c.442 0 .889.022 1.338.067l5.8.582-.582 5.808a13.133 13.133 0 0 1 -14.358 11.74 5.982 5.982 0 0 1 -.592-.086 5.81 5.81 0 0 1 -4.637-6.292zm-.977-11.713a19.035 19.035 0 0 0 -2.072 2.669c-.031-.463-.068-.926-.119-1.387.731-.433 1.458-.86 2.191-1.282zm-24.239-2.663a31.356 31.356 0 0 0 -1.884-17.915 26.932 26.932 0 0 1 17.116 18.139c-6.975 5.231-13.729 8.783-20.187 10.621a27.507 27.507 0 0 0 4.955-10.845zm-37.1 2.191a26.947 26.947 0 0 1 26.417-21.591q.74 0 1.482.041a29.432 29.432 0 0 1 3.743 12.406 16.654 16.654 0 0 0 -5.175-1.991 16.024 16.024 0 0 0 -11.973 2.225 15.238 15.238 0 0 0 -6.38 10.513 17.78 17.78 0 0 0 -.007 5.13 30.443 30.443 0 0 1 -8.2-6.235c.037-.166.06-.334.091-.498zm30.89-2.127a24.67 24.67 0 0 1 -8.41 12.237 30.4 30.4 0 0 1 -7.367-.782 11.393 11.393 0 0 1 -1.062-6.834 9.247 9.247 0 0 1 3.775-6.411 9.978 9.978 0 0 1 7.466-1.335 10.233 10.233 0 0 1 5.596 3.125zm-26.91 22.42a26.892 26.892 0 0 1 -4.332-11.9 35.93 35.93 0 0 0 22.389 7.748c.554 0 1.111-.013 1.669-.036 9.432-.4 19.381-4.224 29.631-11.386a26.944 26.944 0 0 1 -49.357 15.574zm49.825 10.571a13.073 13.073 0 0 1 10.426 14.169l-.582 5.8-5.808-.583a13.138 13.138 0 0 1 -11.74-14.36c.02-.2.048-.4.086-.59a5.809 5.809 0 0 1 5.7-4.669 5.653 5.653 0 0 1 .594.03c.478.054.911.119 1.324.203zm-25.913 9.584a5.84 5.84 0 0 1 4.218 6.786c-.023.115-.051.232-.084.355a13.139 13.139 0 0 1 -15.276 9.479c-.269-.054-.536-.118-.784-.182l-5.637-1.505 1.5-5.637a13.143 13.143 0 0 1 16.063-9.296zm-15.415-2.141c.72-.734 1.448-1.457 2.178-2.18.227.086.452.176.68.257a19.234 19.234 0 0 0 -2.858 1.923zm-3.35 3.5a18.975 18.975 0 0 0 -3.09 6.392l-1.9 7.123-7.07 3.099a19.485 19.485 0 0 0 -3.9 2.3 228.857 228.857 0 0 1 15.96-18.917zm-9.65 22.104 5.584-2.447 2.436 5.562c.114.266.222.53.321.8a13.623 13.623 0 0 1 -7.324 17.14c-.11.049-.226.1-.344.139a6.1 6.1 0 0 1 -7.674-3.28 13.62 13.62 0 0 1 7.001-17.914zm-9.336 37.21c.193-.071.394-.13.591-.182a13.594 13.594 0 0 1 16.56 9.77l1.521 5.908-5.9 1.519a13.552 13.552 0 0 1 -16.152-8.456c-.15-.41-.285-.844-.408-1.314a6.075 6.075 0 0 1 3.788-7.245zm9.326 23.456a19.825 19.825 0 0 0 4.943-.629l8.807-2.267a3 3 0 0 0 2.157-3.653l-2.269-8.815a19.625 19.625 0 0 0 -23.873-14.08c-.046.011-.088.029-.133.041a33.618 33.618 0 0 0 1.215-6.521 12.155 12.155 0 0 0 7.761 2.821 11.989 11.989 0 0 0 4.143-.739c.236-.086.478-.184.7-.281a19.628 19.628 0 0 0 10.535-24.7c-.133-.365-.28-.726-.446-1.113l-1.159-2.646 2.6.693c.375.1.744.185 1.116.261a19.1 19.1 0 0 0 22.261-13.8c.065-.236.123-.483.171-.722a11.835 11.835 0 0 0 -3.652-11.1 32.537 32.537 0 0 0 5.793-2.028 19.148 19.148 0 0 0 17.109 20.93l8.8.882a2.741 2.741 0 0 0 .3.016 3 3 0 0 0 2.984-2.7l.882-8.79a19.054 19.054 0 0 0 -15.2-20.647c-.6-.122-1.221-.216-1.905-.288h-.012a32.654 32.654 0 0 0 4.064-7.5 11.777 11.777 0 0 0 8.617 7.166c.381.077.773.134 1.177.176a19.118 19.118 0 0 0 20.922-17.123l.048-.478a59.038 59.038 0 0 0 5.026 7.974c12.129 16.238 33 27.321 58.77 31.208l1.045.061a7.04 7.04 0 0 0 1.473-.144 7.636 7.636 0 0 0 2.168-.944q.077-.046.15-.1a118.566 118.566 0 0 0 19.017-16.477 118.357 118.357 0 0 0 19.018 16.477c.049.035.1.068.151.1a7.7 7.7 0 0 0 2.221.957 6.821 6.821 0 0 0 1.4.132l1.064-.062c25.77-3.887 46.642-14.97 58.77-31.207q1.806-2.414 3.319-4.933a19.1 19.1 0 0 0 20.488 14.544c.4-.041.788-.1 1.168-.175a11.773 11.773 0 0 0 8.617-7.168 32.615 32.615 0 0 0 4.066 7.507h-.026c-.671.07-1.29.164-1.891.285a19.056 19.056 0 0 0 -15.2 20.649l.882 8.789a3 3 0 0 0 2.984 2.7 2.741 2.741 0 0 0 .3-.016l8.8-.882a19.147 19.147 0 0 0 17.106-20.929 32.7 32.7 0 0 0 5.793 2.028 11.833 11.833 0 0 0 -3.651 11.1c.048.24.106.487.168.715a19.1 19.1 0 0 0 22.263 13.809c.373-.076.742-.163 1.141-.266l2.574-.688-1.168 2.669c-.157.364-.3.725-.437 1.09a19.624 19.624 0 0 0 10.525 24.695c.231.1.473.2.7.285a12.006 12.006 0 0 0 4.146.74 12.156 12.156 0 0 0 7.762-2.821 33.557 33.557 0 0 0 1.215 6.521c-.048-.013-.092-.031-.14-.043a19.625 19.625 0 0 0 -23.866 14.084l-2.269 8.813a3 3 0 0 0 2.157 3.653l8.808 2.267a19.819 19.819 0 0 0 4.942.63 19.515 19.515 0 0 0 18.337-12.828c.216-.59.407-1.2.586-1.884.014-.055.021-.11.035-.166a33.494 33.494 0 0 0 7.287 5.512 12.044 12.044 0 0 0 -8.783 7.654c-.137.373-.255.76-.36 1.161a19.626 19.626 0 0 0 14.085 23.866l8.812 2.27a3.026 3.026 0 0 0 .749.094 3 3 0 0 0 2.905-2.252l1.553-6.034a228 228 0 0 1 -23.767 169.258l-25.83-109.094-.061.015c-.02-.224-.035-.448-.068-.672a12.722 12.722 0 0 0 -1.062-3.548v-35.412a59.4 59.4 0 0 0 -59.335-59.336 70.37 70.37 0 0 0 -29.247 6.276c-.1-.144-.185-.3-.29-.437-2.747-3.569-7.512-4.536-11.859-2.407l-.018.01c-4.764 2.374-8.546 8.33-7.748 16.835-8.19-3.241-15.132-1.091-18.755 3.01-3.241 3.655-3.562 8.524-.8 12.117a11.258 11.258 0 0 0 4.583 3.434 13.663 13.663 0 0 0 .346 1.509 71.557 71.557 0 0 0 -6.81 29.038q-3.686 1.042-7.444 1.872a3 3 0 1 0 1.281 5.861q3.18-.7 6.31-1.546c.1 1.53.237 3.062.434 4.593l.412 3.209-11.121 2.431a3 3 0 0 0 1.281 5.862l10.605-2.32.2 1.563a12.534 12.534 0 0 0 -3.834 7.384 12.682 12.682 0 0 0 3.574 10.679l-52.411 157.345v-46.193a31.624 31.624 0 0 0 -31.588-31.588h-18.923a33.6 33.6 0 0 0 -5.9-13.6l-2.366-3.248v-13.178a51.943 51.943 0 0 0 25.938-44.925v-1.068a12.384 12.384 0 0 0 1.951.17 12.622 12.622 0 0 0 12.509-14.395 12.561 12.561 0 0 0 -3.142-6.687v-45.991a33.662 33.662 0 0 0 -14-27.28l-29.222-20.988a21.506 21.506 0 0 0 -22.539-1.637l-21.373 11.068a9.033 9.033 0 0 0 -9.482-1.191l-14.479 6.743a29.008 29.008 0 0 0 -16.7 26.2v54.633a12.617 12.617 0 0 0 10.572 19.522 12.524 12.524 0 0 0 2.054-.19v1.088a51.943 51.943 0 0 0 25.938 44.925v13.178l-2.37 3.249a33.631 33.631 0 0 0 -5.9 13.6h-18.924a31.623 31.623 0 0 0 -31.588 31.588v11.37a227.594 227.594 0 0 1 -39.452-192.7l1.553 6.035a3 3 0 0 0 2.905 2.252 3.026 3.026 0 0 0 .749-.094l8.814-2.27a19.628 19.628 0 0 0 14.081-23.869c-.1-.393-.221-.78-.358-1.153a12.044 12.044 0 0 0 -8.788-7.652 33.482 33.482 0 0 0 7.293-5.514c.014.059.021.119.037.179.176.669.367 1.281.583 1.871a19.513 19.513 0 0 0 18.34 12.825zm-31.653-3.027c.411-.151.845-.285 1.314-.408a6.165 6.165 0 0 1 1.542-.2 6.069 6.069 0 0 1 5.7 3.989c.071.192.13.393.181.589a13.616 13.616 0 0 1 -9.769 16.559l-5.908 1.522-1.519-5.9a13.549 13.549 0 0 1 8.456-16.151zm-11.2-63.643a27.829 27.829 0 0 1 3.395 55.452c5.735-11.588 8.1-22.344 7.033-32.023a36.965 36.965 0 0 0 -11.734-23.382c.432-.021.867-.047 1.302-.047zm-25.232 16.085a27.627 27.627 0 0 1 15.629-14.371c.181-.067.364-.119.547-.182a30.849 30.849 0 0 1 7.759 7.52c-6.286.007-12.4 3.339-15 8.927-2.664 5.721-1.258 12.695 2.868 17.473a30.651 30.651 0 0 1 -13.773-1.831 27.86 27.86 0 0 1 1.97-17.536z"/></svg>